<?xml version="1.0" encoding="iso-8859-1"?>
<!-- Uploaded to: SVG Repo, www.svgrepo.com, Generator: SVG Repo Mixer Tools -->
<svg fill="#9A39DC" height="800px" width="800px" version="1.1" id="Layer_1" xmlns="http://www.w3.org/2000/svg" xmlns:xlink="http://www.w3.org/1999/xlink" 
	 viewBox="0 0 511.999 511.999" xml:space="preserve">
<g>
	<g>
		<path d="M348.541,393.552c-19.045,11.443-44.369,9.271-61.173-7.532l-31.37-31.37l-31.37,31.37
			c-16.633,16.633-41.9,19.132-61.205,7.5c-71.509-42.901-50.359-30.22-91.064-54.637v56.246c0,5.856,3.083,11.301,8.105,14.315
			l166.943,100.173c5.297,3.179,11.882,3.179,17.181,0l166.954-100.173c5.022-3.012,8.105-8.46,8.105-14.315v-56.24
			C402.107,361.411,420.011,350.669,348.541,393.552z"/>
	</g>
</g>
<g>
	<g>
		<path d="M446.565,183.65c30.861-30.861,24.115-24.115,54.976-54.976c7.665-7.664,6.081-20.544-3.216-26.121L331.371,2.381
			c-6.572-3.943-14.977-2.908-20.396,2.511l-54.976,54.976L201.024,4.892c-5.419-5.419-13.826-6.454-20.396-2.511L13.673,102.554
			c-9.275,5.561-10.894,18.443-3.216,26.122c33.18,33.177,25.68,25.676,54.978,54.976l-54.979,54.977
			c-7.648,7.648-6.096,20.533,3.216,26.122c77.33,46.398,58.952,35.371,166.954,100.173c6.57,3.943,14.977,2.908,20.396-2.511
			l54.976-54.976l54.976,54.976c5.419,5.419,13.824,6.452,20.396,2.511c88.23-52.937,52.891-31.732,166.954-100.173
			c9.295-5.576,10.881-18.457,3.216-26.122L446.565,183.65z M255.998,264.353L121.496,183.65
			c50.596-30.357,55.265-33.158,134.503-80.701c78.674,47.204,84.165,50.498,134.503,80.701L255.998,264.353z"/>
	</g>
</g>
</svg>